<svg xmlns="http://www.w3.org/2000/svg" version="1.1" xmlns:xlink="http://www.w3.org/1999/xlink" viewBox="0 0 200 200"><rect width="200" height="200" fill="url('#gradient')"></rect><defs><linearGradient id="gradient" gradientTransform="rotate(360 0.5 0.5)"><stop offset="0%" stop-color="#353664"></stop><stop offset="100%" stop-color="#000000"></stop></linearGradient></defs><g><g fill="#ffffff" transform="matrix(4.844907778668805,0,0,4.844907778668805,36.02487082611396,133.96452132510296)" stroke="#ffffff" stroke-width="0.2"><path d="M8.80-14.22L12.23-14.22L12.23-4.91Q12.23-3.33 11.55-2.17Q10.88-1.02 9.62-0.41Q8.36 0.20 6.64 0.20L6.64 0.20Q4.04 0.20 2.55-1.15Q1.05-2.50 1.03-4.84L1.03-4.84L1.03-14.22L4.47-14.22L4.47-4.78Q4.53-2.44 6.64-2.44L6.64-2.44Q7.71-2.44 8.25-3.03Q8.80-3.61 8.80-4.93L8.80-4.93L8.80-14.22ZM20.14 0L14.37 0L14.37-14.22L19.47-14.22Q22.22-14.22 23.65-13.21Q25.08-12.21 25.08-10.29L25.08-10.29Q25.08-9.19 24.57-8.41Q24.06-7.63 23.08-7.26L23.08-7.26Q24.19-6.96 24.79-6.16Q25.38-5.36 25.38-4.21L25.38-4.21Q25.38-2.12 24.06-1.07Q22.73-0.02 20.14 0L20.14 0ZM20.20-6.04L17.79-6.04L17.79-2.64L20.04-2.64Q20.97-2.64 21.46-3.06Q21.96-3.49 21.96-4.26L21.96-4.26Q21.96-6.04 20.20-6.04L20.20-6.04ZM17.79-11.57L17.79-8.29L19.58-8.29Q20.70-8.30 21.18-8.70Q21.66-9.10 21.66-9.88L21.66-9.88Q21.66-10.78 21.14-11.18Q20.63-11.57 19.47-11.57L19.47-11.57L17.79-11.57Z"></path></g></g></svg>